<?xml version="1.0" standalone="no"?>
<!DOCTYPE svg PUBLIC "-//W3C//DTD SVG 20010904//EN"
 "http://www.w3.org/TR/2001/REC-SVG-20010904/DTD/svg10.dtd">
<svg version="1.0" xmlns="http://www.w3.org/2000/svg"
 width="700.000000pt" height="700.000000pt" viewBox="0 0 700.000000 700.000000"
 preserveAspectRatio="xMidYMid meet">
<metadata>
Created by potrace 1.14, written by Peter Selinger 2001-2017
</metadata>
<g transform="translate(0.000000,700.000000) scale(0.100000,-0.100000)"
fill="#000000" stroke="none">
<path d="M0 3500 l0 -3500 3500 0 3500 0 0 3500 0 3500 -3500 0 -3500 0 0
-3500z m5238 2510 c318 -34 565 -151 735 -348 183 -210 277 -506 289 -902 l3
-115 -386 -3 -386 -2 -6 132 c-9 213 -51 338 -143 431 -55 55 -113 84 -206
103 -197 42 -385 -30 -478 -184 -63 -104 -83 -197 -88 -412 -8 -365 48 -501
252 -615 34 -18 212 -95 396 -170 184 -74 394 -164 465 -199 417 -205 564
-457 606 -1041 14 -194 6 -577 -16 -725 -43 -298 -132 -492 -299 -655 -203
-197 -498 -306 -876 -322 -479 -20 -863 117 -1089 389 -72 85 -161 258 -191
368 -39 144 -70 394 -70 566 l0 64 390 0 390 0 0 -99 c0 -245 70 -426 197
-510 135 -90 390 -104 548 -30 102 48 185 158 220 294 27 105 38 324 26 506
-22 350 -92 475 -326 592 -39 19 -233 103 -433 186 -397 165 -434 182 -537
249 -241 155 -362 372 -412 737 -25 186 -22 544 6 699 53 294 164 519 344 693
191 186 433 296 717 326 77 8 266 6 358 -3z m-2959 -54 c318 -54 513 -162 683
-375 176 -220 236 -482 225 -969 -6 -244 -16 -322 -58 -452 -70 -213 -234
-417 -408 -507 l-59 -31 89 -53 c253 -149 386 -374 436 -733 23 -166 23 -629
0 -807 -40 -302 -118 -491 -276 -660 -154 -167 -334 -259 -606 -311 -104 -20
-148 -21 -857 -25 l-748 -4 0 2476 0 2476 743 -4 c625 -4 757 -7 836 -21z"/>
<path d="M1475 5268 c-3 -7 -4 -310 -3 -673 l3 -660 250 1 c273 2 339 11 441
61 67 33 147 116 179 185 102 225 99 664 -7 871 -27 53 -91 121 -141 150 -101
59 -225 77 -525 77 -145 0 -194 -3 -197 -12z"/>
<path d="M1470 2499 l0 -771 268 5 c227 4 277 7 333 24 179 53 279 172 331
394 21 85 23 119 22 354 0 247 -2 265 -26 356 -61 227 -164 341 -352 389 -69
17 -111 20 -328 20 l-248 0 0 -771z"/>
</g>
</svg>
